<?xml version="1.0" standalone="no"?>
<!DOCTYPE svg PUBLIC "-//W3C//DTD SVG 20010904//EN"
 "http://www.w3.org/TR/2001/REC-SVG-20010904/DTD/svg10.dtd">
<!--
logo.svg
Copyright (c) 2020-2023 Ishan Pranav. All rights reserved.
Licensed under the MIT License.
-->
<svg version="1.0" xmlns="http://www.w3.org/2000/svg"
 width="32pt" height="32pt" viewBox="0 0 192 192"
 preserveAspectRatio="xMidYMid meet">
    <g transform="translate(0, 192) scale(0.100000,-0.1)" fill="#000000" stroke="none">
        <path d="M1200 1629 c-99 -79 -210 -133 -347 -168 -61 -16 -139 -44 -173 -62
-176 -94 -360 -349 -400 -556 -18 -92 -9 -246 18 -307 62 -138 200 -246 369
-290 90 -24 244 -21 329 5 77 24 134 71 134 111 0 14 -19 74 -41 134 -54 143
-89 260 -89 298 0 61 73 176 110 176 4 0 22 -21 38 -48 36 -54 71 -78 131 -88
55 -9 98 -45 111 -94 22 -80 124 -120 187 -74 41 31 71 80 78 129 8 53 3 73
-36 122 -43 53 -75 120 -84 173 -12 70 -39 122 -98 189 -65 72 -84 130 -73
220 4 31 10 77 13 104 3 26 2 47 -3 47 -4 0 -24 -15 -43 -32 -25 -25 -32 -28
-27 -13 4 11 10 35 13 53 5 29 3 32 -18 32 -14 -1 -56 -26 -99 -61z"/>
    </g>
</svg>
